# xmcd
#
# Track frame offsets:
#	150
#	15575
#	29070
#	44247
#	58977
#	76742
#	92780
#	113592
#	129317
#	144205
#
# Disc length: 2088 seconds
#
# Revision: 0
# Processed by: cddbd v1.5.1PL2 Copyright (c) Steve Scherf et al.
# Submitted via: dBpowerAMP V4.0
#
DISCID=8208260a
DTITLE=Stu Page Band - Can't Sing the Blues
DYEAR=1900
DGENRE=
TTITLE0=Long Staright Road
TTITLE1=What GoesRound
TTITLE2=can't Sing The Blues
TTITLE3=Mendin' Hearts
TTITLE4=Pickin' At The Speed Of Light
TTITLE5=Small Town Boy
TTITLE6=Get Over These Blues
TTITLE7=Highways And Heartaches
TTITLE8=have A Little Faith
TTITLE9=Stepping Stone
EXTD=
EXTT0=
EXTT1=
EXTT2=
EXTT3=
EXTT4=
EXTT5=
EXTT6=
EXTT7=
EXTT8=
EXTT9=
PLAYORDER=
